<svg width="28" height="77" viewBox="0 0 28 77" fill="none" xmlns="http://www.w3.org/2000/svg">
<g filter="url(#filter0_d)">
<path d="M23.8372 43.7682C23.0787 29.7428 20.111 13.8178 15.4111 1.77122C15.7245 1.0447 15.245 -0.219081 14.6159 0.0326471C7.22778 2.98797 5.14916 23.5694 4.38933 33.3937C3.55111 44.2302 3.31776 64.7384 11.7656 68.3159C15.2466 69.7906 19.3789 67.8922 21.6002 63.2946C24.1916 57.9311 24.1853 50.2029 23.8372 43.7682ZM20.8406 34.0295C18.5593 33.4665 15.3791 34.5443 14.0267 34.8442C13.4793 34.9655 12.9463 35.1128 12.4127 35.2602C12.4757 25.0581 13.3139 14.7821 14.1589 4.68098C16.1544 10.8709 19.1717 22.5577 20.8406 34.0295ZM19.6045 37.7246C19.5332 37.9289 19.4698 38.1148 19.4184 38.2787C19.2539 38.0759 19.0928 37.8609 18.9272 37.6555C19.1521 37.6768 19.3782 37.6999 19.6045 37.7246ZM6.38206 34.4462C6.90126 25.9003 8.33662 11.0576 12.9826 4.42704C11.0203 14.0989 10.0608 25.0783 10.1532 35.9742C10.0269 36.0198 9.90353 36.0786 9.77765 36.126C9.55316 36.0113 9.30231 36.0183 9.061 36.2197C8.9458 36.3164 8.84173 36.4424 8.73016 36.549C7.88672 36.9058 7.0485 37.2898 6.21778 37.7341C6.26663 36.4957 6.32548 35.3782 6.38206 34.4462ZM12.9106 65.2316C8.22505 64.7436 6.642 56.5071 6.23096 48.2876C6.3423 48.3857 6.4625 48.45 6.58747 48.4761C6.61314 48.5371 6.66041 48.5687 6.71199 48.5151C6.72312 48.5037 6.73516 48.4948 6.74652 48.4831C6.96488 48.4654 7.18779 48.3254 7.38751 48.0009C7.43841 47.9179 7.48976 47.833 7.54089 47.7488C8.48681 46.9543 9.49567 46.3774 10.5323 45.9416C11.0031 52.6978 11.8958 59.2541 13.2432 65.2515C13.1319 65.2437 13.0244 65.2434 12.9106 65.2316ZM15.3019 65.121C15.2939 65.0765 15.2905 65.0346 15.28 64.9887C13.7806 58.521 12.9785 51.911 12.6236 45.2338C13.1969 45.0783 13.7706 44.9435 14.3389 44.8251C16.9726 44.2765 19.417 45.3073 21.9633 45.1423C22.4616 55.505 20.9651 63.8987 15.3019 65.121Z" fill="white"/>
</g>
<defs>
<filter id="filter0_d" x="0" y="0" width="28" height="76.8068" filterUnits="userSpaceOnUse" color-interpolation-filters="sRGB">
<feFlood flood-opacity="0" result="BackgroundImageFix"/>
<feColorMatrix in="SourceAlpha" type="matrix" values="0 0 0 0 0 0 0 0 0 0 0 0 0 0 0 0 0 0 127 0"/>
<feOffset dy="4"/>
<feGaussianBlur stdDeviation="2"/>
<feColorMatrix type="matrix" values="0 0 0 0 0 0 0 0 0 0 0 0 0 0 0 0 0 0 0.25 0"/>
<feBlend mode="normal" in2="BackgroundImageFix" result="effect1_dropShadow"/>
<feBlend mode="normal" in="SourceGraphic" in2="effect1_dropShadow" result="shape"/>
</filter>
</defs>
</svg>
